# xmcd
#
# Track frame offsets:
#        150
#        14530
#        28775
#        39727
#        55552
#        64147
#        78080
#        96785
#        109195
#        132060
#        145490
#        159200
#        167395
#        179162
#        187902
#        200225
#        212250
#        222292
#
# Disc length: 3129 seconds
#
# Revision: 0
# Processed by: cddbd v1.5.1PL0 Copyright (c) Steve Scherf et al.
# Submitted via: ExactAudioCopy v0.95a5
#
DISCID=f70c3712
DTITLE=Various Artist - Yet Mo' Funky Blues New Standards
DYEAR=2001
DGENRE=Blues
TTITLE0=Ted Taylor - It's A Funky Situation
TTITLE1=Lowell Fulson - Do You Feel It?
TTITLE2=Lowell Fulson - Trouble Everywhere
TTITLE3=Cicero Blake - Dip My Dipper [Alternate Mix]
TTITLE4=The Carter Brothers - Early In The Morning
TTITLE5=Raful Neal - Let's Work Together
TTITLE6=Phillip Walker - When It Needs Gettin' Done
TTITLE7=Little Joe Blue - Standing On The Threshold
TTITLE8=John Lee Hooker - Roll and Tumble
TTITLE9=Bobby Rush - Niki Hoeky
TTITLE10=Little Johnny Taylor - I'll Make It Worth Your While
TTITLE11=Raful Neal - Blues On The Moon
TTITLE12=Charles Brown - Trouble Blues
TTITLE13=Ike Turner - Box Top
TTITLE14=Lonnie Brooks - Figure Head
TTITLE15=Little Joe Blue - Right There Where You Left It
TTITLE16=Jerry McCain - Juicy Lucy
TTITLE17=Ted Taylor - Funky Thing
EXTD=
EXTT0=
EXTT1=
EXTT2=
EXTT3=
EXTT4=
EXTT5=
EXTT6=
EXTT7=
EXTT8=
EXTT9=
EXTT10=
EXTT11=
EXTT12=
EXTT13=
EXTT14=
EXTT15=
EXTT16=
EXTT17=
PLAYORDER=
